<svg width="100" height="88" 
    xmlns="http://www.w3.org/2000/svg">
    <g fill="none">
        <path d="M21.4 23.9h22.8a1 1 0 0 1 1 1v16.4a3 3 0 0 1-3 3H23.4a3 3 0 0 1-3-3V24.8a1 1 0 0 1 1-1z" fill="#FFF"/>
        <path d="M80 40.1C80 24 70 9.5 54.9 3.5a40.4 40.4 0 0 0-43.8 9.3 39 39 0 0 0-7.5 43.6h72.8A38.9 38.9 0 0 0 80 40z" fill="#DDF887"/>
        <path d="M43.8 21.1c.3 0 .6-.1.9-.4.2-.3.3-.6.2-1a12.3 12.3 0 0 0-12.1-9.5 12.3 12.3 0 0 0-12 9.5c-.2.4 0 .7.2 1 .2.3.6.5.9.4h21.9z" fill="#FFF"/>
        <path d="M21.4 23.9h22.8a1 1 0 0 1 1 1v16.4a3 3 0 0 1-3 3H23.4a3 3 0 0 1-3-3V24.8a1 1 0 0 1 1-1zM43.8 21c.3 0 .6-.1.9-.4.2-.3.3-.6.2-1a12.3 12.3 0 0 0-12.1-9.5 12.3 12.3 0 0 0-12 9.5c-.2.4 0 .7.2 1 .2.3.6.5.9.4h21.9z" stroke="#8DB600"/>
        <path d="M23.1 44.3H30v6.2c0 1-.9 2-2 2h-2.9a2 2 0 0 1-2-2v-6.2zm17.4 8.1h-3a2 2 0 0 1-2-2v-6.1h7v6.2c0 1-1 2-2 2zM50.7 28c1 0 2-.6 2.5-1.5l4.8-8.9a2.7 2.7 0 0 0-1.2-3.6 2.8 2.8 0 0 0-3.7 1l-4.8 9a2.7 2.7 0 0 0 2.4 4zM12.1 36c0 1.5 1.2 2.7 2.8 2.7a2.7 2.7 0 0 0 2.7-2.7v-9.5c0-1.5-1.2-2.8-2.7-2.8a2.7 2.7 0 0 0-2.8 2.8V36z" stroke="#8DB600" fill="#FFF"/>
        <path d="M37 11l4.4-4.5m-12.7 4.4l-4.5-4.4" stroke="#8DB600"/>
        <ellipse stroke="#8DB600" fill="#DDF887" cx="28.7" cy="17" rx="1.4" ry="1.4"/>
        <ellipse stroke="#8DB600" fill="#DDF887" cx="36.9" cy="17" rx="1.4" ry="1.4"/>
        <ellipse fill="#A4C639" cx="51" cy="65.4" rx="9.2" ry="1.7"/>
        <rect stroke="#8DB600" fill="#FFF" x="39.7" y="23.2" width="22.1" height="36.9" rx="3.4"/>
        <path fill="#A4C639" d="M39.7 29.9h22V55h-22z"/>
        <path fill="#FFF" d="M39.7 48.5l18.8-18.6H39.7z"/>
        <path stroke="#8DB600" d="M39.7 29.9h22V55h-22zm6.3-3.4h4.2m3.4 0h.9"/>
        <path d="M50.7 56.7a.8.8 0 0 0-.8.8c0 .5.4.9.8.9s.9-.4.9-.9a.8.8 0 0 0-.9-.8z" fill="#8DB600"/>
    </g>
</svg>