<svg width="108" height="78" 
    xmlns="http://www.w3.org/2000/svg">
    <g fill="none">
        <path d="M84.5 40.2c0-16.1-10-30.6-25.1-36.6a40.4 40.4 0 0 0-43.8 9.3 39 39 0 0 0-7.5 43.5h72.8a38.9 38.9 0 0 0 3.6-16.2z" fill="#F0F2FF"/>
        <path d="M5 56.5h78m-82.5 0H3m82 0h2.5" stroke="#8DD6F9"/>
        <path d="M68 26.9c0-9.9-9.3-15-18-15-12.2 0-18.6 9.3-18.6 19.8 0 5.9 1.4 10 6.7 13.4v11.3h20v-6.6H63c2.8 0 5.3-1.7 5.3-4.5V40h3c4.2-.2-3.2-11.3-3.2-13z" fill="#FFF"/>
        <path d="M68 26.9c0-9.9-9.3-15-18-15-12.2 0-18.6 9.3-18.6 19.8 0 5.9 1.4 10 6.7 13.4v11.3h20v-6.6H63c2.8 0 5.3-1.7 5.3-4.5V40h3c4.2-.2-3.2-11.3-3.2-13z" stroke="#8DD6F9"/>
        <path d="M26.8 9a18.6 18.6 0 0 1 25.6-.5 18 18 0 0 1 1.1 25.3A18.6 18.6 0 0 1 28 35.7l-3 3-2.4-2.4 3-3A18 18 0 0 1 26.8 9z" stroke="#8DD6F9" fill="#FFF"/>
        <ellipse fill="#CAEDFE" transform="rotate(-45 39.8 21.8)" cx="39.8" cy="21.8" rx="14.4" ry="14.2"/>
        <path d="M20.6 36a1.2 1.2 0 0 1 1.7 0l3 3c.5.5.5 1.2 0 1.7l-9.2 9a3.4 3.4 0 0 1-5.6-1.4 3.3 3.3 0 0 1 .8-3.2l9.3-9z" fill="#CAEDFE"/>
        <path d="M20.6 36a1.2 1.2 0 0 1 1.7 0l3 3c.5.5.5 1.2 0 1.7l-9.2 9a3.4 3.4 0 0 1-5.6-1.4 3.3 3.3 0 0 1 .8-3.2l9.3-9z" stroke="#8DD6F9"/>
        <ellipse stroke="#8DD6F9" transform="rotate(-45 39.8 21.8)" cx="39.8" cy="21.8" rx="14.4" ry="14.2"/>
        <rect fill="#FFF" x="34.8" y="16.8" width="10" height="9.9" rx=".8"/>
        <rect stroke="#8DD6F9" x="34.8" y="16.8" width="10" height="9.9" rx=".8"/>
        <path d="M44 16.8v-2.5m-4.2 2.5v-2.5m-4.2 2.5v-2.5M44 29.3v-2.5m-4.2 2.5v-2.5m-4.2 2.5v-2.5m11.7-9h-2.5m2.5 4h-2.5m2.5 4.2h-2.5m-10-8.3h-2.5m2.5 4.2h-2.5m2.5 4.1h-2.5m8.4-2.5H38m24 8.3a.6.6 0 0 1-.6.6.6.6 0 0 1-.6-.6c0-.4.3-.6.6-.6a.6.6 0 0 1 .5.1l.1.5z" stroke="#8DD6F9"/>
    </g>
</svg>